<?xml version="1.0" standalone="no"?>
<!DOCTYPE svg PUBLIC "-//W3C//DTD SVG 20010904//EN"
 "http://www.w3.org/TR/2001/REC-SVG-20010904/DTD/svg10.dtd">
<svg version="1.0" xmlns="http://www.w3.org/2000/svg"
 width="2048.000000pt" height="2048.000000pt" viewBox="0 0 2048.000000 2048.000000"
 preserveAspectRatio="xMidYMid meet">
<metadata>
Created by potrace 1.11, written by Peter Selinger 2001-2013
</metadata>
<g transform="translate(0.000000,2048.000000) scale(0.100000,-0.100000)"
fill="#000000" stroke="none">
<path d="M4690 15616 c0 -729 1 -775 18 -780 9 -2 315 -62 680 -132 l662 -128
0 -4593 c0 -2526 -3 -4593 -6 -4593 -6 0 -1185 -227 -1301 -251 l-53 -10 0
-770 0 -769 2650 0 2650 0 0 769 0 769 -22 5 c-37 9 -1329 257 -1339 257 -5 0
-8 661 -7 1687 l3 1688 1000 3 c652 2 1061 -1 1174 -8 339 -21 586 -80 831
-196 541 -258 867 -742 966 -1434 13 -91 18 -252 24 -785 5 -368 13 -708 19
-755 72 -568 219 -961 498 -1331 225 -299 591 -510 1043 -603 285 -58 297 -59
1203 -63 l837 -4 0 775 c0 427 -3 776 -6 776 -3 0 -103 14 -222 31 -328 46
-446 91 -577 223 -100 100 -157 217 -200 406 -15 64 -19 166 -25 675 -8 635
-16 762 -65 1050 -91 535 -293 1011 -583 1371 -302 376 -772 677 -1351 867
l-123 40 158 77 c423 205 761 438 1050 725 581 577 846 1272 820 2155 -23 838
-247 1506 -699 2090 -105 134 -400 431 -542 544 -684 543 -1559 860 -2655 961
-356 32 -616 35 -3557 35 l-2953 0 0 -774z m6159 -1230 c579 -77 985 -272
1267 -608 269 -321 400 -684 420 -1164 19 -436 -75 -820 -272 -1116 -288 -433
-783 -675 -1509 -737 -72 -7 -521 -11 -1127 -11 l-1008 0 0 1831 0 1830 1053
-4 c908 -3 1069 -6 1176 -21z"/>
</g>
</svg>
